Coordinates
version=1
nRows=17
nColumns=40
inDegrees=yes

Units are S.I. units (second, meters, Newtons, ...)
If the header above contains a line with 'inDegrees', this indicates whether rotational values are in degrees (yes) or radians (no).

endheader
time	pelvis_tilt	pelvis_list	pelvis_rotation	pelvis_tx	pelvis_ty	pelvis_tz	hip_flexion_r	hip_adduction_r	hip_rotation_r	knee_angle_r	knee_angle_r_beta	ankle_angle_r	subtalar_angle_r	mtp_angle_r	hip_flexion_l	hip_adduction_l	hip_rotation_l	knee_angle_l	knee_angle_l_beta	ankle_angle_l	subtalar_angle_l	mtp_angle_l	lumbar_extension	lumbar_bending	lumbar_rotation	arm_flex_r	arm_add_r	arm_rot_r	elbow_flex_r	pro_sup_r	wrist_flex_r	wrist_dev_r	arm_flex_l	arm_add_l	arm_rot_l	elbow_flex_l	pro_sup_l	wrist_flex_l	wrist_dev_l
      4.12500000	      3.20135637	     -5.99384597	     -8.49406446	     -0.28394833	      0.94472345	     -0.98980694	     -1.35843778	     -4.45036943	     -0.89822791	     75.81587087	      1.32323657	    -20.29568936	      0.00000000	      0.00000000	     24.14410072	     -7.85040156	    -11.61851521	     60.84818902	      1.06200124	     20.22839970	      0.00000000	      0.00000000	    -14.26252945	      0.45888237	     11.05714763	     89.81813090	    -18.62596419	     40.28750866	     36.58691110	     85.41583725	      0.00000000	      0.00000000	     89.82375114	    -24.64375682	     52.34194386	     46.56494136	     86.41523589	      0.00000000	      0.00000000
      4.13000000	      3.20242990	     -6.02389011	     -8.52612349	     -0.28390126	      0.94401406	     -0.98979744	     -1.35209411	     -4.41571587	     -0.84065026	     75.87344072	      1.32424136	    -20.31318580	      0.00000000	      0.00000000	     24.21540701	     -7.87412753	    -11.58167750	     61.00935764	      1.06481417	     20.33138841	      0.00000000	      0.00000000	    -14.25399263	      0.45598820	     11.21528372	     89.81794807	    -18.91265538	     40.58378706	     36.83124243	     85.19080367	      0.00000000	      0.00000000	     89.82659531	    -24.32850657	     52.15509093	     46.29292586	     86.29633566	      0.00000000	      0.00000000
      4.13500000	      3.20803264	     -5.99951495	     -8.58603580	     -0.28384808	      0.94325646	     -0.98972830	     -1.34998236	     -4.43488804	     -0.74108877	     75.95666625	      1.32569391	    -20.11061157	      0.00000000	      0.00000000	     24.29147273	     -7.85604502	    -11.56245123	     61.20767565	      1.06827547	     20.46099996	      0.00000000	      0.00000000	    -14.26877994	      0.43371917	     11.15922880	     89.82058899	    -18.71620746	     40.48804854	     36.75417745	     84.75949585	      0.00000000	      0.00000000	     89.82964896	    -24.55697942	     52.28872638	     46.51394340	     86.26666845	      0.00000000	      0.00000000
      4.14000000	      3.26520575	     -5.93444041	     -8.55442336	     -0.28387879	      0.94268407	     -0.98976800	     -1.40992764	     -4.56030444	     -0.82967311	     75.96926400	      1.32591379	    -20.30285859	      0.00000000	      0.00000000	     24.30517146	     -7.74652043	    -11.49425206	     61.31194737	      1.07009535	     20.52825605	      0.00000000	      0.00000000	    -14.34651554	      0.38473152	     10.99582716	     89.82156366	    -18.41224386	     39.95393160	     36.56156560	     85.58020784	      0.00000000	      0.00000000	     89.82869827	    -24.73352572	     52.13158370	     46.64869294	     86.36334201	      0.00000000	      0.00000000
      4.14500000	      3.17802324	     -5.95649876	     -8.61780196	     -0.28391561	      0.94187316	     -0.98969280	     -1.28876349	     -4.52625187	     -0.76767543	     76.04847995	      1.32729637	    -20.29048365	      0.00000000	      0.00000000	     24.49821306	     -7.81117754	    -11.49619568	     61.53193769	      1.07393491	     20.61589154	      0.00000000	      0.00000000	    -14.27118489	      0.41484050	     10.99413137	     89.82276053	    -18.31296646	     39.82643951	     36.52532705	     85.65191482	      0.00000000	      0.00000000	     89.82992352	    -24.81604801	     52.14150292	     46.70393065	     86.31997226	      0.00000000	      0.00000000
      4.15000000	      3.26965412	     -5.93645286	     -8.67586958	     -0.28374639	      0.94125575	     -0.98963935	     -1.38142219	     -4.59578717	     -0.74074931	     76.10404459	      1.32826615	    -20.32891262	      0.00000000	      0.00000000	     24.45027216	     -7.79990577	    -11.53448157	     61.69400088	      1.07676344	     20.71533145	      0.00000000	      0.00000000	    -14.35733195	      0.36297892	     11.04541479	     89.82597521	    -18.34883895	     39.90367969	     36.64584403	     85.47432589	      0.00000000	      0.00000000	     89.83021813	    -24.74535273	     52.02034539	     46.58218416	     86.33159104	      0.00000000	      0.00000000
      4.15500000	      3.23110892	     -5.92106832	     -8.70226068	     -0.28373630	      0.94055510	     -0.98962130	     -1.33906184	     -4.61947812	     -0.71210167	     76.13797236	      1.32885830	    -20.37369258	      0.00000000	      0.00000000	     24.56761146	     -7.78678199	    -11.49365899	     61.84065197	      1.07932299	     20.78945707	      0.00000000	      0.00000000	    -14.32433233	      0.34180412	     11.05093991	     89.82487300	    -18.30300114	     39.79798596	     36.58218906	     85.61170040	      0.00000000	      0.00000000	     89.83222434	    -24.73843950	     52.00106881	     46.60200275	     86.32403753	      0.00000000	      0.00000000
      4.16000000	      3.19549064	     -5.95366788	     -8.72103915	     -0.28381276	      0.93975295	     -0.98955249	     -1.28729355	     -4.55419432	     -0.65448362	     76.19210460	      1.32980309	    -20.39348033	      0.00000000	      0.00000000	     24.71000028	     -7.84292899	    -11.44968711	     62.04702821	      1.08292493	     20.89642608	      0.00000000	      0.00000000	    -14.31076051	      0.37381425	     11.05924792	     89.82656064	    -18.27910710	     39.68448732	     36.63048433	     85.55777941	      0.00000000	      0.00000000	     89.83399530	    -24.72924566	     51.90688581	     46.60719823	     86.33428623	      0.00000000	      0.00000000
      4.16500000	      3.18685463	     -5.97157272	     -8.76264048	     -0.28384588	      0.93904733	     -0.98948121	     -1.26226892	     -4.53464010	     -0.60765590	     76.25283219	      1.33086299	    -20.43650741	      0.00000000	      0.00000000	     24.80849627	     -7.88440523	    -11.43569215	     62.24013506	      1.08629528	     20.98035319	      0.00000000	      0.00000000	    -14.31911268	      0.37894195	     11.07044529	     89.82768116	    -18.22013730	     39.56331927	     36.65435204	     85.60637952	      0.00000000	      0.00000000	     89.83590770	    -24.74209133	     51.82746212	     46.61660693	     86.30577038	      0.00000000	      0.00000000
      4.17000000	      3.23343716	     -5.95794068	     -8.81854817	     -0.28364733	      0.93841933	     -0.98942530	     -1.31777815	     -4.58365232	     -0.57427317	     76.28172739	      1.33136730	    -20.46857414	      0.00000000	      0.00000000	     24.80239087	     -7.89935437	    -11.49254902	     62.39608246	      1.08901708	     21.07668028	      0.00000000	      0.00000000	    -14.35891169	      0.34016398	     11.08773688	     89.82827295	    -18.19686052	     39.53715052	     36.68541448	     85.50865126	      0.00000000	      0.00000000	     89.83671144	    -24.74656070	     51.76258258	     46.60131597	     86.37022446	      0.00000000	      0.00000000
      4.17500000	      3.23227561	     -5.97431089	     -8.85893794	     -0.28360694	      0.93769934	     -0.98939043	     -1.30129792	     -4.58867906	     -0.55275578	     76.35541729	      1.33265343	    -20.50028431	      0.00000000	      0.00000000	     24.88814128	     -7.91750823	    -11.44634301	     62.57922254	      1.09221348	     21.14264391	      0.00000000	      0.00000000	    -14.36941013	      0.34428387	     11.13314384	     89.82857263	    -18.21159863	     39.50477866	     36.71036986	     85.51814967	      0.00000000	      0.00000000	     89.83822953	    -24.71259591	     51.71184661	     46.59364281	     86.34292679	      0.00000000	      0.00000000
      4.18000000	      3.21058641	     -5.98916767	     -8.90258443	     -0.28362914	      0.93702256	     -0.98927720	     -1.27284051	     -4.56154822	     -0.50322316	     76.39992416	      1.33343022	    -20.42563217	      0.00000000	      0.00000000	     24.98951046	     -7.96678105	    -11.44348906	     62.75666529	      1.09531044	     21.27036646	      0.00000000	      0.00000000	    -14.36157116	      0.34655143	     11.13129175	     89.82952388	    -18.15730398	     39.47032486	     36.70910754	     85.52365338	      0.00000000	      0.00000000	     89.83981452	    -24.72083865	     51.65355300	     46.57046475	     86.32117808	      0.00000000	      0.00000000
      4.18500000	      3.17701631	     -6.07182572	     -8.94793850	     -0.28364196	      0.93619917	     -0.98916841	     -1.22884312	     -4.45488281	     -0.44170429	     76.48528906	      1.33492012	    -20.41160286	      0.00000000	      0.00000000	     25.10644698	     -8.10556656	    -11.42076240	     63.00913443	      1.09971685	     21.35358410	      0.00000000	      0.00000000	    -14.34079742	      0.40745211	     11.24237959	     89.83170721	    -18.28067156	     39.57991149	     36.84554472	     85.12648813	      0.00000000	      0.00000000	     89.84108735	    -24.56532729	     51.44964222	     46.43895767	     86.45714372	      0.00000000	      0.00000000
      4.19000000	      3.09587160	     -6.04093849	     -8.94147062	     -0.28362996	      0.93541116	     -0.98922504	     -1.14172275	     -4.48210318	     -0.46790546	     76.49528543	      1.33509459	    -20.57120982	      0.00000000	      0.00000000	     25.30412126	     -8.06056755	    -11.35088177	     63.16386947	      1.10241749	     21.37566779	      0.00000000	      0.00000000	    -14.27520243	      0.41624102	     11.03594544	     89.83419628	    -17.99506873	     39.48789507	     36.73738472	     84.36023515	      0.00000000	      0.00000000	     89.84278105	    -24.88673531	     51.64882748	     46.72588299	     85.46944580	      0.00000000	      0.00000000
      4.19500000	      3.11671019	     -6.10050394	     -8.95679889	     -0.28355910	      0.93467451	     -0.98920930	     -1.17645410	     -4.42959697	     -0.46976907	     76.51418744	      1.33542450	    -20.64523519	      0.00000000	      0.00000000	     25.33835680	     -8.14685363	    -11.35421311	     63.34386927	      1.10555908	     21.55640466	      0.00000000	      0.00000000	    -14.30053274	      0.44666831	     11.17774247	     89.83293775	    -18.19273934	     39.41917214	     36.87271494	     85.15609251	      0.00000000	      0.00000000	     89.84329963	    -24.55632949	     51.29238101	     46.40842693	     86.38465426	      0.00000000	      0.00000000
      4.20000000	      3.04486311	     -6.11341699	     -9.02090923	     -0.28362996	      0.93391335	     -0.98907542	     -1.06742680	     -4.39411700	     -0.38635070	     76.57585197	      1.33650074	    -20.69072215	      0.00000000	      0.00000000	     25.49829201	     -8.20532039	    -11.35748030	     63.52568053	      1.10873228	     21.63843421	      0.00000000	      0.00000000	    -14.24333733	      0.45045476	     11.19094937	     89.83307209	    -18.12747342	     39.31907835	     36.85813498	     85.19705712	      0.00000000	      0.00000000	     89.84544157	    -24.62943434	     51.29947689	     46.49052609	     86.40494042	      0.00000000	      0.00000000
      4.20500000	      3.09706508	     -6.06013607	     -9.06991966	     -0.28348716	      0.93323997	     -0.98902579	     -1.12187147	     -4.48104804	     -0.34795486	     76.60122170	      1.33694353	    -20.69992263	      0.00000000	      0.00000000	     25.48750238	     -8.17537188	    -11.41320035	     63.66823332	      1.11122030	     21.73365330	      0.00000000	      0.00000000	    -14.29928572	      0.37956870	     11.12565322	     89.83500926	    -17.95161824	     39.12452455	     36.75496929	     85.41586560	      0.00000000	      0.00000000	     89.84473976	    -24.75773625	     51.23424910	     46.58553284	     86.36625659	      0.00000000	      0.00000000
